<mxfile host="app.diagrams.net" modified="2023-04-05T09:48:08.902Z" agent="Mozilla/5.0 (Windows NT 10.0; Win64; x64) AppleWebKit/537.36 (KHTML, like Gecko) Chrome/110.0.0.0 Safari/537.36 OPR/96.0.0.0" etag="OPZyiORDLC9e7EpdUhsA" version="21.1.4" type="device">
  <diagram name="Strona-1" id="el2Ja97uhe5Jfx8_7PpY">
    <mxGraphModel dx="1010" dy="573" grid="1" gridSize="10" guides="1" tooltips="1" connect="1" arrows="1" fold="1" page="1" pageScale="1" pageWidth="827" pageHeight="1169" math="0" shadow="0">
      <root>
        <mxCell id="0" />
        <mxCell id="1" parent="0" />
        <mxCell id="UFB5PVYr48k-TYvRi-fI-1" value="" style="ellipse;whiteSpace=wrap;html=1;" vertex="1" parent="1">
          <mxGeometry x="90" y="40" width="120" height="80" as="geometry" />
        </mxCell>
        <mxCell id="UFB5PVYr48k-TYvRi-fI-3" value="opisuje proces funkcjonalny(sekwencja czynnośći)" style="text;html=1;strokeColor=none;fillColor=none;align=center;verticalAlign=middle;whiteSpace=wrap;rounded=0;" vertex="1" parent="1">
          <mxGeometry x="380" y="70" width="160" height="25" as="geometry" />
        </mxCell>
        <mxCell id="UFB5PVYr48k-TYvRi-fI-4" value="Naiwa use-case" style="text;html=1;strokeColor=none;fillColor=none;align=center;verticalAlign=middle;whiteSpace=wrap;rounded=0;" vertex="1" parent="1">
          <mxGeometry x="120" y="67.5" width="60" height="30" as="geometry" />
        </mxCell>
        <mxCell id="UFB5PVYr48k-TYvRi-fI-5" value="Actor" style="shape=umlActor;verticalLabelPosition=bottom;verticalAlign=top;html=1;outlineConnect=0;" vertex="1" parent="1">
          <mxGeometry x="135" y="230" width="30" height="60" as="geometry" />
        </mxCell>
        <mxCell id="UFB5PVYr48k-TYvRi-fI-6" value="użytkownik oddziałowujący za pomocą interfejsu z modowowym systemem (zaw system)" style="text;html=1;strokeColor=none;fillColor=none;align=center;verticalAlign=middle;whiteSpace=wrap;rounded=0;" vertex="1" parent="1">
          <mxGeometry x="380" y="250" width="260" height="30" as="geometry" />
        </mxCell>
        <mxCell id="UFB5PVYr48k-TYvRi-fI-7" value="Użytkownik-GUI&lt;br&gt;System- Interfejs komunikacyjny" style="text;html=1;strokeColor=none;fillColor=none;align=center;verticalAlign=middle;whiteSpace=wrap;rounded=0;" vertex="1" parent="1">
          <mxGeometry x="720" y="245" width="110" height="30" as="geometry" />
        </mxCell>
        <mxCell id="UFB5PVYr48k-TYvRi-fI-8" value="" style="shape=link;html=1;rounded=0;width=-1;" edge="1" parent="1">
          <mxGeometry width="100" relative="1" as="geometry">
            <mxPoint x="100" y="380" as="sourcePoint" />
            <mxPoint x="200" y="380" as="targetPoint" />
          </mxGeometry>
        </mxCell>
        <mxCell id="UFB5PVYr48k-TYvRi-fI-9" value="*&amp;nbsp; &amp;nbsp; &amp;nbsp; &amp;nbsp; &amp;nbsp; &amp;nbsp; &amp;nbsp; &amp;nbsp; &amp;nbsp; o&amp;nbsp; &amp;nbsp; &amp;nbsp; *" style="text;html=1;strokeColor=none;fillColor=none;align=center;verticalAlign=middle;whiteSpace=wrap;rounded=0;" vertex="1" parent="1">
          <mxGeometry x="100" y="390" width="100" height="30" as="geometry" />
        </mxCell>
        <mxCell id="UFB5PVYr48k-TYvRi-fI-10" value="Używa wykonuje określa relacje pomiedzy aktorem a use casem" style="text;html=1;strokeColor=none;fillColor=none;align=center;verticalAlign=middle;whiteSpace=wrap;rounded=0;" vertex="1" parent="1">
          <mxGeometry x="300" y="360" width="200" height="30" as="geometry" />
        </mxCell>
        <mxCell id="UFB5PVYr48k-TYvRi-fI-12" value="" style="endArrow=classic;html=1;rounded=0;" edge="1" parent="1">
          <mxGeometry relative="1" as="geometry">
            <mxPoint x="70" y="460" as="sourcePoint" />
            <mxPoint x="170" y="460" as="targetPoint" />
            <Array as="points">
              <mxPoint x="110" y="460" />
            </Array>
          </mxGeometry>
        </mxCell>
        <mxCell id="UFB5PVYr48k-TYvRi-fI-13" value="Label" style="edgeLabel;resizable=0;html=1;align=center;verticalAlign=middle;" connectable="0" vertex="1" parent="UFB5PVYr48k-TYvRi-fI-12">
          <mxGeometry relative="1" as="geometry" />
        </mxCell>
        <mxCell id="UFB5PVYr48k-TYvRi-fI-14" value="zbieżność między use-casami" style="text;html=1;strokeColor=none;fillColor=none;align=center;verticalAlign=middle;whiteSpace=wrap;rounded=0;" vertex="1" parent="1">
          <mxGeometry x="220" y="450" width="130" height="30" as="geometry" />
        </mxCell>
        <mxCell id="UFB5PVYr48k-TYvRi-fI-15" value="&amp;lt;&amp;lt;include&amp;gt;&amp;gt;" style="text;html=1;strokeColor=none;fillColor=none;align=center;verticalAlign=middle;whiteSpace=wrap;rounded=0;" vertex="1" parent="1">
          <mxGeometry x="90" y="540" width="60" height="30" as="geometry" />
        </mxCell>
        <mxCell id="UFB5PVYr48k-TYvRi-fI-16" value="stereotyp, oznacza zawieranie się use casu w obowiązkowe wykonuje się na use case wykonującego się" style="text;html=1;strokeColor=none;fillColor=none;align=center;verticalAlign=middle;whiteSpace=wrap;rounded=0;" vertex="1" parent="1">
          <mxGeometry x="210" y="540" width="390" height="30" as="geometry" />
        </mxCell>
        <mxCell id="UFB5PVYr48k-TYvRi-fI-17" value="" style="whiteSpace=wrap;html=1;aspect=fixed;" vertex="1" parent="1">
          <mxGeometry x="77.5" y="620" width="85" height="85" as="geometry" />
        </mxCell>
        <mxCell id="UFB5PVYr48k-TYvRi-fI-18" value="buy system - zawiera wszystkie use case&amp;nbsp;" style="text;html=1;strokeColor=none;fillColor=none;align=center;verticalAlign=middle;whiteSpace=wrap;rounded=0;" vertex="1" parent="1">
          <mxGeometry x="200" y="630" width="370" height="30" as="geometry" />
        </mxCell>
        <mxCell id="UFB5PVYr48k-TYvRi-fI-19" value="Use case system" style="text;html=1;strokeColor=none;fillColor=none;align=center;verticalAlign=middle;whiteSpace=wrap;rounded=0;" vertex="1" parent="1">
          <mxGeometry x="90" y="647.5" width="60" height="30" as="geometry" />
        </mxCell>
        <mxCell id="UFB5PVYr48k-TYvRi-fI-20" value="stereotyp" style="text;html=1;strokeColor=none;fillColor=none;align=center;verticalAlign=middle;whiteSpace=wrap;rounded=0;" vertex="1" parent="1">
          <mxGeometry x="90" y="750" width="60" height="30" as="geometry" />
        </mxCell>
        <mxCell id="UFB5PVYr48k-TYvRi-fI-21" value="wyrażanie tekstu zapisane między nawiasami &quot;&amp;lt;&amp;lt;-&amp;gt;&amp;gt;&quot;" style="text;html=1;strokeColor=none;fillColor=none;align=center;verticalAlign=middle;whiteSpace=wrap;rounded=0;" vertex="1" parent="1">
          <mxGeometry x="255" y="750" width="355" height="30" as="geometry" />
        </mxCell>
        <mxCell id="UFB5PVYr48k-TYvRi-fI-22" value="SKLEP INTERNETOWY DIAGRAM" style="text;html=1;strokeColor=none;fillColor=none;align=center;verticalAlign=middle;whiteSpace=wrap;rounded=0;" vertex="1" parent="1">
          <mxGeometry x="290" y="820" width="300" height="30" as="geometry" />
        </mxCell>
        <mxCell id="UFB5PVYr48k-TYvRi-fI-24" value="Actor" style="shape=umlActor;verticalLabelPosition=bottom;verticalAlign=top;html=1;outlineConnect=0;" vertex="1" parent="1">
          <mxGeometry x="70" y="850" width="30" height="60" as="geometry" />
        </mxCell>
        <mxCell id="UFB5PVYr48k-TYvRi-fI-25" value="Klient zarejestrowany" style="text;html=1;strokeColor=none;fillColor=none;align=center;verticalAlign=middle;whiteSpace=wrap;rounded=0;" vertex="1" parent="1">
          <mxGeometry x="37.5" y="930" width="95" height="30" as="geometry" />
        </mxCell>
        <mxCell id="UFB5PVYr48k-TYvRi-fI-26" value="Actor" style="shape=umlActor;verticalLabelPosition=bottom;verticalAlign=top;html=1;outlineConnect=0;" vertex="1" parent="1">
          <mxGeometry x="60" y="980" width="30" height="60" as="geometry" />
        </mxCell>
        <mxCell id="UFB5PVYr48k-TYvRi-fI-27" style="edgeStyle=orthogonalEdgeStyle;rounded=0;orthogonalLoop=1;jettySize=auto;html=1;exitX=0.5;exitY=1;exitDx=0;exitDy=0;" edge="1" parent="1" source="UFB5PVYr48k-TYvRi-fI-25" target="UFB5PVYr48k-TYvRi-fI-25">
          <mxGeometry relative="1" as="geometry" />
        </mxCell>
        <mxCell id="UFB5PVYr48k-TYvRi-fI-29" value="Klient niezarejestrowany" style="text;html=1;strokeColor=none;fillColor=none;align=center;verticalAlign=middle;whiteSpace=wrap;rounded=0;" vertex="1" parent="1">
          <mxGeometry x="30" y="1060" width="90" height="30" as="geometry" />
        </mxCell>
        <mxCell id="UFB5PVYr48k-TYvRi-fI-30" value="" style="ellipse;whiteSpace=wrap;html=1;" vertex="1" parent="1">
          <mxGeometry x="510" y="855" width="80" height="50" as="geometry" />
        </mxCell>
        <mxCell id="UFB5PVYr48k-TYvRi-fI-31" value="obsługa zamówienia" style="text;html=1;strokeColor=none;fillColor=none;align=center;verticalAlign=middle;whiteSpace=wrap;rounded=0;" vertex="1" parent="1">
          <mxGeometry x="520" y="865" width="60" height="30" as="geometry" />
        </mxCell>
        <mxCell id="UFB5PVYr48k-TYvRi-fI-32" value="Actor" style="shape=umlActor;verticalLabelPosition=bottom;verticalAlign=top;html=1;outlineConnect=0;" vertex="1" parent="1">
          <mxGeometry x="640" y="840" width="30" height="60" as="geometry" />
        </mxCell>
        <mxCell id="UFB5PVYr48k-TYvRi-fI-33" value="sprzedawca" style="text;html=1;strokeColor=none;fillColor=none;align=center;verticalAlign=middle;whiteSpace=wrap;rounded=0;" vertex="1" parent="1">
          <mxGeometry x="625" y="920" width="60" height="30" as="geometry" />
        </mxCell>
        <mxCell id="UFB5PVYr48k-TYvRi-fI-34" value="Actor" style="shape=umlActor;verticalLabelPosition=bottom;verticalAlign=top;html=1;outlineConnect=0;" vertex="1" parent="1">
          <mxGeometry x="640" y="950" width="30" height="60" as="geometry" />
        </mxCell>
        <mxCell id="UFB5PVYr48k-TYvRi-fI-35" value="Administrator" style="text;html=1;strokeColor=none;fillColor=none;align=center;verticalAlign=middle;whiteSpace=wrap;rounded=0;" vertex="1" parent="1">
          <mxGeometry x="612.5" y="1030" width="85" height="30" as="geometry" />
        </mxCell>
        <mxCell id="UFB5PVYr48k-TYvRi-fI-36" value="Actor" style="shape=umlActor;verticalLabelPosition=bottom;verticalAlign=top;html=1;outlineConnect=0;" vertex="1" parent="1">
          <mxGeometry x="640" y="1060" width="25" height="40" as="geometry" />
        </mxCell>
        <mxCell id="UFB5PVYr48k-TYvRi-fI-37" value="Manager" style="text;html=1;strokeColor=none;fillColor=none;align=center;verticalAlign=middle;whiteSpace=wrap;rounded=0;" vertex="1" parent="1">
          <mxGeometry x="625" y="1120" width="60" height="30" as="geometry" />
        </mxCell>
        <mxCell id="UFB5PVYr48k-TYvRi-fI-38" value="" style="ellipse;whiteSpace=wrap;html=1;" vertex="1" parent="1">
          <mxGeometry x="230" y="852.5" width="60" height="30" as="geometry" />
        </mxCell>
        <mxCell id="UFB5PVYr48k-TYvRi-fI-39" value="logowanie" style="text;html=1;strokeColor=none;fillColor=none;align=center;verticalAlign=middle;whiteSpace=wrap;rounded=0;" vertex="1" parent="1">
          <mxGeometry x="230" y="855" width="60" height="25" as="geometry" />
        </mxCell>
        <mxCell id="UFB5PVYr48k-TYvRi-fI-41" value="" style="ellipse;whiteSpace=wrap;html=1;" vertex="1" parent="1">
          <mxGeometry x="220" y="885" width="80" height="40" as="geometry" />
        </mxCell>
        <mxCell id="UFB5PVYr48k-TYvRi-fI-42" value="rejestrecja&lt;br&gt;użytkownika" style="text;html=1;strokeColor=none;fillColor=none;align=center;verticalAlign=middle;whiteSpace=wrap;rounded=0;" vertex="1" parent="1">
          <mxGeometry x="230" y="890" width="60" height="30" as="geometry" />
        </mxCell>
        <mxCell id="UFB5PVYr48k-TYvRi-fI-43" value="" style="ellipse;whiteSpace=wrap;html=1;" vertex="1" parent="1">
          <mxGeometry x="215" y="930" width="90" height="50" as="geometry" />
        </mxCell>
        <mxCell id="UFB5PVYr48k-TYvRi-fI-44" value="aktualizacja danych osobowych" style="text;html=1;strokeColor=none;fillColor=none;align=center;verticalAlign=middle;whiteSpace=wrap;rounded=0;" vertex="1" parent="1">
          <mxGeometry x="230" y="940" width="60" height="30" as="geometry" />
        </mxCell>
        <mxCell id="UFB5PVYr48k-TYvRi-fI-45" value="" style="ellipse;whiteSpace=wrap;html=1;" vertex="1" parent="1">
          <mxGeometry x="355" y="870" width="90" height="50" as="geometry" />
        </mxCell>
        <mxCell id="UFB5PVYr48k-TYvRi-fI-46" value="skłądanie zamówienia" style="text;html=1;strokeColor=none;fillColor=none;align=center;verticalAlign=middle;whiteSpace=wrap;rounded=0;" vertex="1" parent="1">
          <mxGeometry x="355" y="880" width="85" height="30" as="geometry" />
        </mxCell>
        <mxCell id="UFB5PVYr48k-TYvRi-fI-47" value="" style="ellipse;whiteSpace=wrap;html=1;" vertex="1" parent="1">
          <mxGeometry x="505" y="985" width="90" height="40" as="geometry" />
        </mxCell>
        <mxCell id="UFB5PVYr48k-TYvRi-fI-48" value="administrowanie&lt;br&gt;sklepem" style="text;html=1;strokeColor=none;fillColor=none;align=center;verticalAlign=middle;whiteSpace=wrap;rounded=0;" vertex="1" parent="1">
          <mxGeometry x="520" y="990" width="60" height="30" as="geometry" />
        </mxCell>
        <mxCell id="UFB5PVYr48k-TYvRi-fI-49" value="" style="ellipse;whiteSpace=wrap;html=1;" vertex="1" parent="1">
          <mxGeometry x="320" y="1010" width="105" height="50" as="geometry" />
        </mxCell>
        <mxCell id="UFB5PVYr48k-TYvRi-fI-50" value="Obsługa zwrotów i rektueur" style="text;html=1;strokeColor=none;fillColor=none;align=center;verticalAlign=middle;whiteSpace=wrap;rounded=0;" vertex="1" parent="1">
          <mxGeometry x="342.5" y="1020" width="60" height="30" as="geometry" />
        </mxCell>
        <mxCell id="UFB5PVYr48k-TYvRi-fI-51" value="" style="endArrow=none;html=1;rounded=0;exitX=0.944;exitY=0.125;exitDx=0;exitDy=0;exitPerimeter=0;" edge="1" parent="1" source="UFB5PVYr48k-TYvRi-fI-47">
          <mxGeometry width="50" height="50" relative="1" as="geometry">
            <mxPoint x="530" y="980" as="sourcePoint" />
            <mxPoint x="630" y="970" as="targetPoint" />
          </mxGeometry>
        </mxCell>
        <mxCell id="UFB5PVYr48k-TYvRi-fI-52" value="" style="endArrow=none;html=1;rounded=0;" edge="1" parent="1">
          <mxGeometry width="50" height="50" relative="1" as="geometry">
            <mxPoint x="100" y="1020" as="sourcePoint" />
            <mxPoint x="210" y="920" as="targetPoint" />
          </mxGeometry>
        </mxCell>
        <mxCell id="UFB5PVYr48k-TYvRi-fI-53" value="" style="endArrow=none;html=1;rounded=0;" edge="1" parent="1">
          <mxGeometry width="50" height="50" relative="1" as="geometry">
            <mxPoint x="110" y="890" as="sourcePoint" />
            <mxPoint x="220" y="870" as="targetPoint" />
          </mxGeometry>
        </mxCell>
        <mxCell id="UFB5PVYr48k-TYvRi-fI-54" value="" style="endArrow=none;html=1;rounded=0;" edge="1" parent="1">
          <mxGeometry width="50" height="50" relative="1" as="geometry">
            <mxPoint x="600" y="870" as="sourcePoint" />
            <mxPoint x="630" y="870" as="targetPoint" />
          </mxGeometry>
        </mxCell>
        <mxCell id="UFB5PVYr48k-TYvRi-fI-55" value="" style="endArrow=none;html=1;rounded=0;" edge="1" parent="1" source="UFB5PVYr48k-TYvRi-fI-65">
          <mxGeometry width="50" height="50" relative="1" as="geometry">
            <mxPoint x="120" y="860" as="sourcePoint" />
            <mxPoint x="380" y="870" as="targetPoint" />
            <Array as="points">
              <mxPoint x="250" y="840" />
            </Array>
          </mxGeometry>
        </mxCell>
        <mxCell id="UFB5PVYr48k-TYvRi-fI-56" value="" style="endArrow=none;html=1;rounded=0;exitX=0.5;exitY=1;exitDx=0;exitDy=0;" edge="1" parent="1" source="UFB5PVYr48k-TYvRi-fI-43">
          <mxGeometry width="50" height="50" relative="1" as="geometry">
            <mxPoint x="390" y="1010" as="sourcePoint" />
            <mxPoint x="60" y="870" as="targetPoint" />
            <Array as="points">
              <mxPoint x="170" y="1080" />
              <mxPoint x="110" y="1120" />
              <mxPoint x="30" y="1130" />
              <mxPoint x="10" y="1080" />
              <mxPoint x="10" y="1020" />
            </Array>
          </mxGeometry>
        </mxCell>
        <mxCell id="UFB5PVYr48k-TYvRi-fI-57" value="" style="endArrow=none;html=1;rounded=0;" edge="1" parent="1">
          <mxGeometry width="50" height="50" relative="1" as="geometry">
            <mxPoint x="430" y="1050" as="sourcePoint" />
            <mxPoint x="620" y="1100" as="targetPoint" />
          </mxGeometry>
        </mxCell>
        <mxCell id="UFB5PVYr48k-TYvRi-fI-58" value="*&amp;nbsp; &amp;nbsp; &amp;nbsp;1" style="text;html=1;strokeColor=none;fillColor=none;align=center;verticalAlign=middle;whiteSpace=wrap;rounded=0;" vertex="1" parent="1">
          <mxGeometry x="580" y="875" width="60" height="30" as="geometry" />
        </mxCell>
        <mxCell id="UFB5PVYr48k-TYvRi-fI-59" value="1" style="text;html=1;strokeColor=none;fillColor=none;align=center;verticalAlign=middle;whiteSpace=wrap;rounded=0;" vertex="1" parent="1">
          <mxGeometry y="870" width="60" height="30" as="geometry" />
        </mxCell>
        <mxCell id="UFB5PVYr48k-TYvRi-fI-60" value="*" style="text;html=1;strokeColor=none;fillColor=none;align=center;verticalAlign=middle;whiteSpace=wrap;rounded=0;" vertex="1" parent="1">
          <mxGeometry x="240" y="980" width="60" height="30" as="geometry" />
        </mxCell>
        <mxCell id="UFB5PVYr48k-TYvRi-fI-61" value="1" style="text;html=1;strokeColor=none;fillColor=none;align=center;verticalAlign=middle;whiteSpace=wrap;rounded=0;" vertex="1" parent="1">
          <mxGeometry x="90" y="1010" width="60" height="30" as="geometry" />
        </mxCell>
        <mxCell id="UFB5PVYr48k-TYvRi-fI-62" value="1" style="text;html=1;strokeColor=none;fillColor=none;align=center;verticalAlign=middle;whiteSpace=wrap;rounded=0;" vertex="1" parent="1">
          <mxGeometry x="160" y="900" width="60" height="30" as="geometry" />
        </mxCell>
        <mxCell id="UFB5PVYr48k-TYvRi-fI-63" value="1" style="text;html=1;strokeColor=none;fillColor=none;align=center;verticalAlign=middle;whiteSpace=wrap;rounded=0;" vertex="1" parent="1">
          <mxGeometry x="90" y="882.5" width="60" height="30" as="geometry" />
        </mxCell>
        <mxCell id="UFB5PVYr48k-TYvRi-fI-64" value="3" style="text;html=1;strokeColor=none;fillColor=none;align=center;verticalAlign=middle;whiteSpace=wrap;rounded=0;" vertex="1" parent="1">
          <mxGeometry x="170" y="875" width="60" height="30" as="geometry" />
        </mxCell>
        <mxCell id="UFB5PVYr48k-TYvRi-fI-66" value="" style="endArrow=none;html=1;rounded=0;" edge="1" parent="1" target="UFB5PVYr48k-TYvRi-fI-65">
          <mxGeometry width="50" height="50" relative="1" as="geometry">
            <mxPoint x="120" y="860" as="sourcePoint" />
            <mxPoint x="380" y="870" as="targetPoint" />
            <Array as="points" />
          </mxGeometry>
        </mxCell>
        <mxCell id="UFB5PVYr48k-TYvRi-fI-65" value="1" style="text;html=1;strokeColor=none;fillColor=none;align=center;verticalAlign=middle;whiteSpace=wrap;rounded=0;" vertex="1" parent="1">
          <mxGeometry x="90" y="830" width="60" height="30" as="geometry" />
        </mxCell>
        <mxCell id="UFB5PVYr48k-TYvRi-fI-67" value="*" style="text;html=1;strokeColor=none;fillColor=none;align=center;verticalAlign=middle;whiteSpace=wrap;rounded=0;" vertex="1" parent="1">
          <mxGeometry x="342.5" y="845" width="60" height="30" as="geometry" />
        </mxCell>
        <mxCell id="UFB5PVYr48k-TYvRi-fI-68" value="" style="endArrow=none;html=1;rounded=0;" edge="1" parent="1">
          <mxGeometry width="50" height="50" relative="1" as="geometry">
            <mxPoint x="90" y="1050" as="sourcePoint" />
            <mxPoint x="390" y="930" as="targetPoint" />
            <Array as="points">
              <mxPoint x="300" y="1000" />
            </Array>
          </mxGeometry>
        </mxCell>
        <mxCell id="UFB5PVYr48k-TYvRi-fI-69" value="1" style="text;html=1;strokeColor=none;fillColor=none;align=center;verticalAlign=middle;whiteSpace=wrap;rounded=0;" vertex="1" parent="1">
          <mxGeometry x="105" y="1050" width="60" height="30" as="geometry" />
        </mxCell>
        <mxCell id="UFB5PVYr48k-TYvRi-fI-70" value="*" style="text;html=1;strokeColor=none;fillColor=none;align=center;verticalAlign=middle;whiteSpace=wrap;rounded=0;" vertex="1" parent="1">
          <mxGeometry x="375" y="920" width="60" height="30" as="geometry" />
        </mxCell>
        <mxCell id="UFB5PVYr48k-TYvRi-fI-71" value="*" style="text;html=1;strokeColor=none;fillColor=none;align=center;verticalAlign=middle;whiteSpace=wrap;rounded=0;" vertex="1" parent="1">
          <mxGeometry x="400" y="1050" width="60" height="30" as="geometry" />
        </mxCell>
        <mxCell id="UFB5PVYr48k-TYvRi-fI-72" value="1" style="text;html=1;strokeColor=none;fillColor=none;align=center;verticalAlign=middle;whiteSpace=wrap;rounded=0;" vertex="1" parent="1">
          <mxGeometry x="565" y="1100" width="60" height="30" as="geometry" />
        </mxCell>
        <mxCell id="UFB5PVYr48k-TYvRi-fI-73" value="" style="endArrow=classic;html=1;rounded=0;" edge="1" parent="1">
          <mxGeometry width="50" height="50" relative="1" as="geometry">
            <mxPoint x="300" y="870" as="sourcePoint" />
            <mxPoint x="350" y="890" as="targetPoint" />
          </mxGeometry>
        </mxCell>
        <mxCell id="UFB5PVYr48k-TYvRi-fI-74" value="extend" style="text;html=1;strokeColor=none;fillColor=none;align=center;verticalAlign=middle;whiteSpace=wrap;rounded=0;" vertex="1" parent="1">
          <mxGeometry x="282.5" y="870" width="60" height="30" as="geometry" />
        </mxCell>
        <mxCell id="UFB5PVYr48k-TYvRi-fI-75" value="include" style="text;html=1;strokeColor=none;fillColor=none;align=center;verticalAlign=middle;whiteSpace=wrap;rounded=0;" vertex="1" parent="1">
          <mxGeometry x="355" y="950" width="60" height="30" as="geometry" />
        </mxCell>
        <mxCell id="UFB5PVYr48k-TYvRi-fI-76" value="" style="endArrow=classic;html=1;rounded=0;" edge="1" parent="1">
          <mxGeometry width="50" height="50" relative="1" as="geometry">
            <mxPoint x="300" y="860" as="sourcePoint" />
            <mxPoint x="360" y="1000" as="targetPoint" />
          </mxGeometry>
        </mxCell>
        <mxCell id="UFB5PVYr48k-TYvRi-fI-77" value="" style="endArrow=classic;html=1;rounded=0;exitX=0.152;exitY=-0.08;exitDx=0;exitDy=0;exitPerimeter=0;" edge="1" parent="1" source="UFB5PVYr48k-TYvRi-fI-74" target="UFB5PVYr48k-TYvRi-fI-43">
          <mxGeometry width="50" height="50" relative="1" as="geometry">
            <mxPoint x="390" y="1010" as="sourcePoint" />
            <mxPoint x="310" y="950" as="targetPoint" />
            <Array as="points">
              <mxPoint x="320" y="910" />
            </Array>
          </mxGeometry>
        </mxCell>
        <mxCell id="UFB5PVYr48k-TYvRi-fI-78" value="include" style="text;html=1;strokeColor=none;fillColor=none;align=center;verticalAlign=middle;whiteSpace=wrap;rounded=0;" vertex="1" parent="1">
          <mxGeometry x="320" y="920" width="60" height="30" as="geometry" />
        </mxCell>
        <mxCell id="UFB5PVYr48k-TYvRi-fI-79" value="include" style="text;html=1;strokeColor=none;fillColor=none;align=center;verticalAlign=middle;whiteSpace=wrap;rounded=0;" vertex="1" parent="1">
          <mxGeometry x="282.5" y="912.5" width="60" height="30" as="geometry" />
        </mxCell>
      </root>
    </mxGraphModel>
  </diagram>
</mxfile>
